<svg xmlns="http://www.w3.org/2000/svg" xmlns:xlink="http://www.w3.org/1999/xlink" width="500" zoomAndPan="magnify" viewBox="0 0 375 374.999991" height="500" preserveAspectRatio="xMidYMid meet" version="1.0"><defs><clipPath id="58f7997d69"><path d="M 94 42.917969 L 278 42.917969 L 278 135 L 94 135 Z M 94 42.917969 " clip-rule="nonzero"/></clipPath><clipPath id="21d205d098"><path d="M 177 134 L 368.273438 134 L 368.273438 227 L 177 227 Z M 177 134 " clip-rule="nonzero"/></clipPath><clipPath id="c422f39e2b"><path d="M 6.773438 148 L 198 148 L 198 241 L 6.773438 241 Z M 6.773438 148 " clip-rule="nonzero"/></clipPath><clipPath id="fc2e157f4a"><path d="M 97 240 L 281 240 L 281 332.417969 L 97 332.417969 Z M 97 240 " clip-rule="nonzero"/></clipPath></defs><g clip-path="url(#58f7997d69)"><path fill="#0d6efd" d="M 262.378906 42.917969 L 169.96875 42.917969 C 157.710938 42.917969 143.882812 49.601562 139.105469 57.839844 L 94.425781 134.867188 L 231.238281 134.867188 L 275.917969 57.839844 C 280.699219 49.601562 274.636719 42.917969 262.378906 42.917969 Z M 262.378906 42.917969 " fill-opacity="1" fill-rule="nonzero"/></g><g clip-path="url(#21d205d098)"><path fill="#0d6efd" d="M 231.25 134.867188 L 177.910156 226.8125 L 314.722656 226.8125 L 368.066406 134.867188 Z M 231.25 134.867188 " fill-opacity="1" fill-rule="nonzero"/></g><g clip-path="url(#c422f39e2b)"><path fill="#0d6efd" d="M 60.261719 148.195312 L 6.933594 240.128906 L 143.746094 240.128906 L 197.089844 148.195312 Z M 60.261719 148.195312 " fill-opacity="1" fill-rule="nonzero"/></g><g clip-path="url(#fc2e157f4a)"><path fill="#0d6efd" d="M 99.078125 317.15625 C 94.300781 325.394531 100.359375 332.078125 112.632812 332.078125 L 205.027344 332.078125 C 217.289062 332.078125 231.113281 325.394531 235.894531 317.15625 L 280.574219 240.128906 L 143.746094 240.128906 Z M 99.078125 317.15625 " fill-opacity="1" fill-rule="nonzero"/></g></svg>