<?xml version="1.0"?><!DOCTYPE svg  PUBLIC '-//W3C//DTD SVG 1.1//EN'  'http://www.w3.org/Graphics/SVG/1.1/DTD/svg11.dtd'><svg enable-background="new 0 0 32 32" height="32px" version="1.1" viewBox="0 0 32 32" width="32px" xml:space="preserve" xmlns="http://www.w3.org/2000/svg" xmlns:xlink="http://www.w3.org/1999/xlink"><g id="Peace_x2C__book_x2C__education_x2C__culture"><g id="XMLID_334_"><g id="XMLID_341_"><path d="M27.5,1.5h-21c-1.104,0-2,0.896-2,2v23l0,0c0-1.104,0.896-2,2-2l21,0V1.5z" fill="#43E886"/></g><g id="XMLID_340_"><path d="M6.5,1.5c-1.104,0-2,0.896-2,2v23c0-1.104,0.896-2,2-2V1.5z" fill="#55FB9B"/></g><g id="XMLID_339_"><path d="M6.5,28.5h21c-0.55,0-1.05-0.22-1.41-0.59c-0.37-0.36-0.59-0.86-0.59-1.41s0.22-1.05,0.59-1.41     c0.36-0.37,0.86-0.59,1.41-0.59h-21c-1.1,0-2,0.9-2,2S5.4,28.5,6.5,28.5z" fill="#EAC89B"/></g><g id="XMLID_338_"><polygon fill="#FF8A80" points="12.5,26.5 12.5,30.5 11.02,29 9.5,30.5 9.5,26.5    "/></g></g><g id="XMLID_367_"><g id="XMLID_366_"><path d="M17,17c-3.032,0-5.5-2.467-5.5-5.5S13.968,6,17,6s5.5,2.467,5.5,5.5S20.032,17,17,17z M17,7     c-2.481,0-4.5,2.019-4.5,4.5S14.519,16,17,16s4.5-2.019,4.5-4.5S19.481,7,17,7z" fill="#FFFFFF"/></g><g id="XMLID_365_"><path d="M21,15c-0.104,0-0.21-0.033-0.3-0.1l-2.397-1.798c-0.221-0.166-0.266-0.479-0.101-0.7     c0.167-0.221,0.48-0.265,0.7-0.1L21.3,14.1c0.221,0.166,0.266,0.479,0.101,0.7C21.302,14.931,21.151,15,21,15z" fill="#FFFFFF"/></g><g id="XMLID_364_"><path d="M13,15c-0.151,0-0.302-0.069-0.4-0.2c-0.165-0.221-0.12-0.534,0.101-0.7l4-3     c0.22-0.166,0.533-0.122,0.7,0.1c0.165,0.221,0.12,0.534-0.101,0.7l-4,3C13.21,14.967,13.104,15,13,15z" fill="#FFFFFF"/></g><g id="XMLID_363_"><path d="M17,17c-0.276,0-0.5-0.224-0.5-0.5v-10C16.5,6.224,16.724,6,17,6s0.5,0.224,0.5,0.5v10     C17.5,16.776,17.276,17,17,17z" fill="#FFFFFF"/></g></g><g id="XMLID_319_"><g id="XMLID_320_"><g id="XMLID_331_"><path d="M27.5,29h-13c-0.276,0-0.5-0.224-0.5-0.5s0.224-0.5,0.5-0.5h11.001C25.178,27.578,25,27.055,25,26.5      c0-0.276,0.224-0.5,0.5-0.5s0.5,0.224,0.5,0.5c0,0.403,0.156,0.776,0.438,1.052C26.724,27.844,27.098,28,27.5,28      c0.276,0,0.5,0.224,0.5,0.5S27.776,29,27.5,29z" fill="#455A64"/></g><g id="XMLID_328_"><path d="M7.5,29h-1C5.121,29,4,27.878,4,26.5S5.121,24,6.5,24h21c0.276,0,0.5,0.224,0.5,0.5S27.776,25,27.5,25      h-21C5.673,25,5,25.673,5,26.5S5.673,28,6.5,28h1C7.776,28,8,28.224,8,28.5S7.776,29,7.5,29z" fill="#455A64"/></g><g id="XMLID_327_"><path d="M6.5,8.5C6.224,8.5,6,8.276,6,8V7c0-0.276,0.224-0.5,0.5-0.5S7,6.724,7,7v1C7,8.276,6.776,8.5,6.5,8.5z" fill="#455A64"/></g><g id="XMLID_326_"><path d="M6.5,23C6.224,23,6,22.776,6,22.5V10c0-0.276,0.224-0.5,0.5-0.5S7,9.724,7,10v12.5      C7,22.776,6.776,23,6.5,23z" fill="#455A64"/></g><g id="XMLID_325_"><path d="M4.5,27C4.224,27,4,26.776,4,26.5v-23C4,2.122,5.121,1,6.5,1C6.776,1,7,1.224,7,1.5S6.776,2,6.5,2      C5.673,2,5,2.673,5,3.5v23C5,26.776,4.776,27,4.5,27z" fill="#455A64"/></g><g id="XMLID_324_"><path d="M27.5,25c-0.276,0-0.5-0.224-0.5-0.5V2H8C7.724,2,7.5,1.776,7.5,1.5S7.724,1,8,1h19.5      C27.776,1,28,1.224,28,1.5v23C28,24.776,27.776,25,27.5,25z" fill="#455A64"/></g><g id="XMLID_323_"><path d="M17,27h-0.5c-0.276,0-0.5-0.224-0.5-0.5s0.224-0.5,0.5-0.5H17c0.276,0,0.5,0.224,0.5,0.5      S17.276,27,17,27z" fill="#455A64"/></g><g id="XMLID_322_"><path d="M14.5,27h-5C9.224,27,9,26.776,9,26.5S9.224,26,9.5,26h5c0.276,0,0.5,0.224,0.5,0.5S14.776,27,14.5,27z" fill="#455A64"/></g><g id="XMLID_321_"><path d="M9.5,31c-0.065,0-0.131-0.013-0.192-0.039C9.121,30.884,9,30.702,9,30.5v-4C9,26.224,9.224,26,9.5,26h3      c0.276,0,0.5,0.224,0.5,0.5v4c0,0.203-0.122,0.386-0.311,0.462c-0.188,0.077-0.402,0.033-0.545-0.111l-1.13-1.144l-1.163,1.149      C9.756,30.95,9.629,31,9.5,31z M10,27v2.304l0.668-0.66c0.094-0.093,0.181-0.119,0.354-0.144      c0.133,0.001,0.26,0.054,0.353,0.149L12,29.282V27H10z" fill="#455A64"/></g></g></g></g></svg>